<?xml version="1.0" encoding="utf-8"?>
<!-- Generator: Adobe Illustrator 16.0.0, SVG Export Plug-In . SVG Version: 6.00 Build 0)  -->
<!DOCTYPE svg PUBLIC "-//W3C//DTD SVG 1.1//EN" "http://www.w3.org/Graphics/SVG/1.1/DTD/svg11.dtd">
<svg version="1.1" id="Layer_1" xmlns="http://www.w3.org/2000/svg" xmlns:xlink="http://www.w3.org/1999/xlink" x="0px" y="0px"
	 width="287.333px" height="71.532px" viewBox="0 0 287.333 71.532" enable-background="new 0 0 287.333 71.532"
	 xml:space="preserve">
<g>
	<circle cx="64.596" cy="7.514" r="6.417"/>
	<path d="M81.336,32.382c-7.142-14.284-15.68-13.917-21.775-15.337c-6.094-1.419-9.6-12.527-9.6-12.527
		c-0.37-1.608-1.288-1.932-1.288-1.932c-1.756-0.351-2.049,1.716-2.049,1.716c-1.054,9.657,6.966,17.25,6.966,17.25
		c1.756,1.404,1.887,7.896,1.887,7.896h-0.036l0.03,39.801h12.601V47.6V29.448c0-1.652,1.578-3.044,3.56-1.773
		c1.982,1.271,6.31,6.93,6.31,6.93c1.053,1.757,3.395,1.056,3.395,1.056C82.156,34.488,81.336,32.382,81.336,32.382z"/>
	<path d="M28.814,7.812c3.847,0,7.121,0.56,9.819,1.68c2.699,1.12,4.896,2.598,6.591,4.436c1.693,1.838,2.928,3.934,3.704,6.288
		c0.775,2.355,1.163,4.795,1.163,7.322c0,2.469-0.388,4.896-1.163,7.278c-0.775,2.384-2.011,4.493-3.704,6.331
		c-1.695,1.838-3.892,3.316-6.591,4.436c-2.699,1.121-5.973,1.682-9.819,1.682H14.601v22.051H1.077V7.812H28.814z M25.11,36.754
		c1.55,0,3.043-0.115,4.479-0.346c1.435-0.229,2.698-0.674,3.79-1.334c1.09-0.66,1.967-1.594,2.627-2.8
		c0.66-1.206,0.991-2.784,0.991-4.737c0-1.952-0.331-3.533-0.991-4.738c-0.66-1.206-1.537-2.139-2.627-2.799
		c-1.092-0.66-2.355-1.105-3.79-1.336c-1.436-0.229-2.929-0.344-4.479-0.344H14.601v18.434H25.11z"/>
	<path d="M93.849,32.792c-1.953,0-3.59,0.446-4.91,1.335c-1.322,0.891-2.399,2.04-3.23,3.446c-0.833,1.408-1.421,2.959-1.766,4.65
		c-0.345,1.695-0.518,3.375-0.518,5.041c0,1.607,0.173,3.244,0.518,4.91s0.904,3.172,1.68,4.521c0.775,1.35,1.822,2.455,3.144,3.316
		c1.32,0.861,2.929,1.293,4.824,1.293c2.928,0,5.182-0.818,6.761-2.455c1.579-1.639,2.57-3.834,2.972-6.592h11.801
		c-0.805,5.916-3.101,10.424-6.891,13.525c-3.79,3.1-8.644,4.65-14.558,4.65c-3.332,0-6.389-0.559-9.175-1.678
		c-2.786-1.121-5.154-2.686-7.105-4.697c-1.953-2.008-3.476-4.406-4.566-7.191c-1.091-2.785-1.637-5.844-1.637-9.174
		c0-3.445,0.502-6.646,1.508-9.604c1.004-2.958,2.483-5.514,4.436-7.667c1.952-2.154,4.335-3.833,7.15-5.039
		c2.813-1.206,6.03-1.81,9.648-1.81c2.641,0,5.181,0.345,7.623,1.034c2.44,0.689,4.623,1.738,6.547,3.144
		c1.923,1.408,3.489,3.159,4.694,5.255c1.207,2.096,1.896,4.579,2.067,7.452h-11.974C102.089,35.348,99.074,32.792,93.849,32.792z"
		/>
	<path d="M130.199,7.812v32.992l15.419-16.022h14.472l-16.797,16.366l18.691,28.168h-14.816l-12.231-19.898l-4.738,4.566v15.332
		h-12.231V7.812H130.199z"/>
	<path fill="#FDB940" d="M183.175,7.812l14.384,42.294h0.174l13.609-42.294h19.037v61.503h-12.663V25.729h-0.172l-15.075,43.586
		h-10.422l-15.074-43.156H176.8v43.156h-12.663V7.812H183.175z"/>
	<path fill="#FDB940" d="M248.899,58.633c1.836,1.781,4.479,2.672,7.924,2.672c2.469,0,4.593-0.617,6.374-1.854
		c1.779-1.234,2.871-2.541,3.272-3.92h10.769c-1.723,5.342-4.365,9.162-7.925,11.457c-3.562,2.299-7.867,3.445-12.922,3.445
		c-3.503,0-6.661-0.559-9.474-1.678c-2.815-1.121-5.199-2.715-7.151-4.781c-1.952-2.068-3.459-4.537-4.522-7.408
		c-1.063-2.871-1.592-6.031-1.592-9.477c0-3.33,0.544-6.43,1.635-9.303c1.092-2.871,2.643-5.354,4.653-7.451
		c2.008-2.095,4.406-3.747,7.192-4.953c2.784-1.206,5.871-1.81,9.259-1.81c3.792,0,7.094,0.733,9.906,2.197
		c2.813,1.464,5.126,3.433,6.935,5.9c1.81,2.47,3.114,5.284,3.919,8.442c0.804,3.16,1.091,6.461,0.862,9.906h-32.13
		C246.056,53.983,247.061,56.854,248.899,58.633z M262.724,35.203c-1.465-1.606-3.69-2.412-6.677-2.412
		c-1.952,0-3.574,0.332-4.865,0.99c-1.293,0.661-2.327,1.48-3.102,2.457c-0.775,0.977-1.322,2.008-1.637,3.1
		c-0.316,1.092-0.504,2.068-0.56,2.928h19.898C265.207,39.167,264.188,36.811,262.724,35.203z"/>
	<g>
		<path d="M277.669,68.188v-4.889h-1.826v-0.654h4.394v0.654h-1.835v4.889H277.669z"/>
		<path d="M280.966,68.188v-5.543h1.104l1.312,3.924c0.122,0.367,0.21,0.639,0.265,0.82c0.063-0.199,0.161-0.496,0.297-0.887
			l1.325-3.857h0.987v5.543h-0.707v-4.639l-1.61,4.639h-0.662l-1.603-4.719v4.719H280.966z"/>
	</g>
</g>
</svg>
